<svg xmlns="http://www.w3.org/2000/svg" height="40" viewBox="0 96 960 960" width="40"><path d="M220.259 947.895q-25.789 0-44.176-18.387-18.388-18.388-18.388-44.176V356.669h50.255v528.663q0 4.616 3.846 8.462 3.847 3.847 8.463 3.847H624.46v50.254H220.259ZM340.77 827.384q-25.788 0-44.176-18.388-18.388-18.387-18.388-44.175V270.463q0-25.788 18.388-44.176Q314.982 207.9 340.77 207.9h374.357q25.788 0 44.176 18.387 18.388 18.388 18.388 44.176v494.358q0 25.788-18.388 44.175-18.388 18.388-44.176 18.388H340.77Zm0-50.255h374.357q4.616 0 8.462-3.846 3.847-3.847 3.847-8.462V270.463q0-4.615-3.847-8.462-3.846-3.846-8.462-3.846H340.77q-4.616 0-8.462 3.846-3.847 3.847-3.847 8.462v494.358q0 4.615 3.847 8.462 3.846 3.846 8.462 3.846Zm-12.309 0V258.155v518.974Z"/></svg>