<svg xmlns="http://www.w3.org/2000/svg" height="40" viewBox="0 96 960 960" width="40"><path d="M778.513 929.743 481.949 633.178 361.332 753.795q9.872 16.077 13.244 32.346 3.372 16.269 3.372 34.731 0 59.467-40.895 100.374t-100.345 40.907q-59.451 0-100.387-40.895-40.935-40.895-40.935-100.345 0-59.451 40.906-100.387 40.907-40.935 100.375-40.935 18.051 0 35.064 4.525 17.013 4.526 33.91 13.988l119.95-120.207-121.027-121.026q-16.077 8.384-32.961 11.961-16.885 3.577-34.936 3.577-59.468 0-100.375-40.895-40.906-40.894-40.906-100.345t40.894-100.386q40.895-40.936 100.346-40.936t100.386 40.907q40.936 40.907 40.936 100.374 0 18.462-3.244 35.269-3.243 16.808-11.885 31.808L865.025 900.41v29.333h-86.512ZM591.897 526.461l-57.845-57.845 244.461-244.462h86.512v28.923L591.897 526.461Zm-355.23-104.307q37.846 0 64.436-26.59 26.59-26.59 26.59-64.436 0-37.846-26.59-64.436-26.59-26.59-64.436-26.59-37.847 0-64.436 26.59-26.59 26.59-26.59 64.436 0 37.846 26.59 64.436 26.589 26.59 64.436 26.59Zm246.359 165.332q3.743 0 6.666-2.794 2.923-2.795 2.923-6.795 0-3.743-2.923-6.666-2.923-2.923-6.666-2.923-4 0-6.795 2.923-2.794 2.923-2.794 6.666 0 4 2.794 6.795 2.795 2.794 6.795 2.794ZM236.667 911.898q37.846 0 64.436-26.59 26.59-26.59 26.59-64.436 0-37.846-26.59-64.436-26.59-26.59-64.436-26.59-37.847 0-64.436 26.59-26.59 26.59-26.59 64.436 0 37.846 26.59 64.436 26.589 26.59 64.436 26.59Z"/></svg>