<svg xmlns="http://www.w3.org/2000/svg" height="40" viewBox="0 96 960 960" width="40"><path d="M202.565 915.999q-26.538 0-44.551-18.013t-18.013-44.551v-554.87q0-26.538 18.013-44.551t44.551-18.013h193.411q6.154-29.23 29.704-48.46Q449.231 168.31 480 168.31q31.306 0 54.691 19.231 23.385 19.23 29.538 48.46h193.206q26.538 0 44.551 18.013t18.013 44.551v554.87q0 26.538-18.013 44.551t-44.551 18.013h-554.87Zm0-50.255h554.87q4.616 0 8.462-3.847 3.847-3.846 3.847-8.462v-554.87q0-4.616-3.847-8.462-3.846-3.847-8.462-3.847h-77.949v89.999H280.514v-89.999h-77.949q-4.616 0-8.462 3.847-3.847 3.846-3.847 8.462v554.87q0 4.616 3.847 8.462 3.846 3.847 8.462 3.847ZM480 290.872q15.461 0 25.807-10.346 10.347-10.346 10.347-25.807 0-15.462-10.347-25.808-10.346-10.346-25.807-10.346-15.461 0-25.807 10.346-10.347 10.346-10.347 25.808 0 15.461 10.347 25.807 10.346 10.346 25.807 10.346Z"/></svg>